<svg xmlns="http://www.w3.org/2000/svg" viewBox="0 0 399.27 220.81"><title>Styleguide-LiskLogo_1</title><g id="Layer_2" data-name="Layer 2"><g id="ILUSTRATION"><rect width="399.27" height="220.81" fill="#4070f4" opacity="0"/><path d="M109.57,126.77l6.9-7.76a.19.19,0,0,0-.14-.32h-7.59a.19.19,0,0,1-.14-.07l-6.45-7.23a.2.2,0,0,1,0-.23l10.76-18.48a.18.18,0,0,0,0-.2l-4.49-7.7a.19.19,0,0,0-.33,0L92.12,112.17a.2.2,0,0,0,0,.22l12.8,14.38a.2.2,0,0,0,.15.06h4.34A.18.18,0,0,0,109.57,126.77Z" fill="#0c152e"/><path d="M114.3,74.08l-4.49,7.7a.23.23,0,0,0,0,.2l4.66,8h0l12.34,21.19a.2.2,0,0,1,0,.22l-6.51,7.31h0l-7,7.82a.19.19,0,0,0,.15.32h10.38a.18.18,0,0,0,.14-.06l12.81-14.38a.2.2,0,0,0,0-.22L114.64,74.08A.2.2,0,0,0,114.3,74.08Z" fill="#0c152e"/><path d="M156,116l0-24.66a.2.2,0,0,0-.34-.13l-7.51,8.44a.15.15,0,0,0,0,.13V124a.19.19,0,0,0,.19.2h19a.2.2,0,0,0,.2-.2v-7.56a.2.2,0,0,0-.2-.19H156.2A.19.19,0,0,1,156,116Z" fill="#0c152e"/><path d="M178.4,124l0-23.09a.2.2,0,0,0-.34-.13l-7.51,8.43a.17.17,0,0,0-.05.13V124a.19.19,0,0,0,.19.2h7.53A.2.2,0,0,0,178.4,124Z" fill="#0c152e"/><path d="M219.1,112.4a.22.22,0,0,1,0-.22l7.72-11.49a.19.19,0,0,0-.16-.3H218a.18.18,0,0,0-.16.09l-5.71,9.25a.2.2,0,0,1-.36-.11l0-18.24a.2.2,0,0,0-.34-.13l-7.51,8.44a.19.19,0,0,0,0,.13V124a.2.2,0,0,0,.2.2h7.51a.21.21,0,0,0,.2-.2v-9.27a.2.2,0,0,1,.36-.11l6.33,9.49a.17.17,0,0,0,.16.09H227a.2.2,0,0,0,.16-.31Z" fill="#0c152e"/><path d="M191.18,124.66c4.88,0,10.09-2,10.09-7.8s-4.82-6.84-8.33-7.65c-1.94-.45-3.48-.8-3.48-1.87,0-.83.75-1.34,2-1.34a3.3,3.3,0,0,1,3,1.83.2.2,0,0,0,.25.09l5.95-2.68a.21.21,0,0,0,.1-.28c-1.83-3.35-5-5-9.44-5-6.48,0-9.37,3.91-9.37,7.8,0,5.31,4.72,6.53,8.17,7.42,2,.52,3.44.89,3.44,1.91,0,.67-.41,1.48-2.34,1.48a3.75,3.75,0,0,1-3.73-2.35.2.2,0,0,0-.27-.1L181,119.19a.19.19,0,0,0-.09.26C182.67,123,186.05,124.66,191.18,124.66Z" fill="#0c152e"/></g></g></svg>